<?xml version="1.0" standalone="no"?>
<!DOCTYPE svg PUBLIC "-//W3C//DTD SVG 20010904//EN"
 "http://www.w3.org/TR/2001/REC-SVG-20010904/DTD/svg10.dtd">
<svg version="1.0" xmlns="http://www.w3.org/2000/svg"
 width="368.000000pt" height="222.000000pt" viewBox="0 0 368.000000 222.000000"
 preserveAspectRatio="xMidYMid meet">

<g transform="translate(0.000000,222.000000) scale(0.100000,-0.100000)"
fill="#000000" stroke="none">
<path d="M1335 1797 c-131 -44 -194 -127 -203 -268 -8 -128 37 -218 136 -277
42 -24 57 -27 137 -27 61 0 108 6 148 19 l57 19 0 82 c0 85 6 99 44 106 11 2
21 10 24 17 3 9 -26 12 -122 12 -69 0 -126 -4 -126 -9 0 -11 25 -21 50 -21 36
0 50 -28 50 -95 0 -59 -2 -66 -27 -82 -40 -27 -128 -24 -176 6 -77 47 -118
175 -97 300 21 125 80 191 172 191 83 0 132 -39 160 -128 9 -28 19 -42 30 -42
16 0 18 11 18 95 0 77 -3 97 -15 102 -9 3 -21 -2 -29 -12 -12 -16 -15 -16 -44
-1 -44 22 -138 29 -187 13z"/>
<path d="M212 1784 c2 -10 12 -20 23 -22 44 -9 45 -14 45 -251 0 -244 -1 -251
-52 -251 -18 0 -28 -5 -28 -15 0 -25 268 -21 351 5 127 39 192 128 193 262 0
102 -36 177 -107 225 -69 47 -104 54 -275 60 -147 5 -154 5 -150 -13z m315
-43 c52 -24 97 -85 113 -153 25 -102 -8 -241 -67 -288 -51 -40 -152 -50 -189
-19 -11 9 -14 56 -14 245 l0 234 58 0 c34 0 74 -8 99 -19z"/>
<path d="M810 1787 c0 -8 18 -21 40 -30 l40 -15 0 -229 c0 -246 -1 -253 -52
-253 -18 0 -28 -5 -28 -15 0 -13 21 -15 125 -15 100 0 125 3 125 14 0 8 -15
17 -34 20 -19 4 -37 14 -40 22 -3 9 -6 114 -6 234 0 233 0 231 53 244 15 3 27
13 27 21 0 12 -21 15 -125 15 -98 0 -125 -3 -125 -13z"/>
<path d="M1720 1787 c0 -8 18 -21 40 -30 l40 -15 0 -229 c0 -246 -1 -253 -52
-253 -18 0 -28 -5 -28 -15 0 -13 21 -15 125 -15 100 0 125 3 125 14 0 8 -15
17 -34 20 -19 4 -37 14 -40 22 -3 9 -6 114 -6 234 0 233 0 231 53 244 15 3 27
13 27 21 0 12 -21 15 -125 15 -98 0 -125 -3 -125 -13z"/>
<path d="M2010 1720 c0 -61 3 -80 14 -80 7 0 19 14 27 31 7 18 23 45 37 60 21
25 31 29 78 29 l54 0 0 -230 c0 -217 -1 -231 -20 -250 -11 -11 -31 -20 -45
-20 -16 0 -25 -6 -25 -15 0 -13 21 -15 130 -15 104 0 130 3 130 14 0 7 -14 16
-32 20 -59 12 -58 8 -58 263 l0 234 57 -3 58 -3 33 -55 c18 -30 37 -56 42 -58
6 -2 10 29 10 77 l0 81 -245 0 -245 0 0 -80z"/>
<path d="M2679 1558 c-92 -241 -124 -298 -163 -298 -9 0 -16 -7 -16 -15 0 -12
18 -15 105 -15 87 0 105 3 105 15 0 9 -9 15 -23 15 -13 0 -31 6 -42 14 -21 15
-18 56 9 119 l15 38 98 -3 97 -3 23 -60 c34 -87 29 -105 -28 -105 -10 0 -19
-7 -19 -15 0 -12 20 -15 120 -15 91 0 120 3 120 13 0 7 -14 17 -32 22 -39 12
-42 19 -153 308 -67 174 -92 227 -105 227 -13 0 -39 -57 -111 -242z m167 -95
c-2 -2 -40 -3 -84 -1 l-80 3 41 108 41 108 43 -107 c23 -59 41 -109 39 -111z"/>
<path d="M3102 1783 c2 -9 14 -20 28 -23 44 -10 50 -39 50 -250 0 -215 -6
-243 -53 -248 -15 -2 -27 -9 -27 -18 0 -12 35 -14 219 -14 l218 0 7 46 c16
120 -3 163 -38 86 -10 -21 -28 -51 -40 -67 -20 -25 -30 -28 -97 -33 -113 -7
-109 -17 -109 252 0 239 0 237 53 250 15 3 27 13 27 21 0 12 -21 15 -121 15
-108 0 -120 -2 -117 -17z"/>
<path d="M425 1166 c-46 -15 -101 -42 -131 -65 -20 -16 -20 -16 13 -32 32 -16
33 -16 33 6 0 19 17 35 35 35 3 0 18 -13 34 -29 27 -26 31 -28 43 -13 10 12
10 14 1 8 -9 -5 -13 1 -13 18 0 29 17 34 35 10 15 -21 40 -8 40 21 0 26 37 32
67 11 12 -9 32 -15 43 -15 17 1 17 2 3 6 -19 5 -24 28 -9 37 5 4 18 -9 30 -26
11 -18 38 -51 60 -73 23 -21 41 -45 41 -51 0 -15 27 -44 41 -44 5 0 9 7 9 15
0 7 8 18 17 24 25 13 69 -15 89 -57 15 -32 15 -36 0 -51 -15 -15 -19 -15 -46
1 -29 16 -29 16 -32 -10 -2 -21 -8 -27 -25 -26 -21 1 -23 -4 -23 -55 0 -39 3
-51 10 -41 7 12 17 6 49 -28 63 -66 51 -123 -19 -88 -29 14 -31 14 -25 -4 3
-10 1 -21 -5 -25 -5 -3 -10 -42 -10 -87 0 -72 3 -85 26 -115 30 -39 23 -61 -7
-24 -18 22 -22 23 -35 9 -8 -8 -16 -24 -17 -36 -1 -12 -7 -23 -14 -23 -7 -1
-16 -2 -20 -3 -5 -1 -33 -20 -63 -43 -87 -66 -162 -96 -222 -91 -27 3 -62 14
-76 25 -41 30 -80 92 -94 148 -10 38 -17 50 -30 47 -40 -8 -107 74 -92 112 9
24 52 19 80 -9 l24 -24 -1 27 c-1 15 4 58 9 96 10 63 9 71 -7 83 -24 16 -54
80 -47 99 7 19 50 18 66 -1 18 -21 32 -19 25 5 -4 13 -1 22 9 26 9 3 16 11 16
16 0 6 16 37 36 70 27 44 33 63 25 71 -8 8 -11 4 -11 -15 0 -54 -46 -47 -90
14 -16 22 -27 46 -23 52 3 6 -3 3 -15 -8 l-21 -18 29 -46 c16 -26 26 -49 24
-52 -6 -5 -37 30 -53 59 -7 12 -12 13 -24 2 -13 -10 -13 -18 -5 -43 12 -33 -2
-52 -34 -44 -22 5 -30 -6 -61 -79 -21 -50 -23 -61 -11 -68 18 -10 44 -60 44
-85 0 -25 -25 -35 -52 -21 -11 6 -22 9 -24 6 -3 -2 -7 -34 -11 -70 -4 -49 -1
-79 12 -119 10 -29 17 -63 17 -76 -3 -38 33 -96 98 -155 47 -44 75 -61 126
-77 67 -20 147 -25 219 -13 36 6 38 7 15 14 -18 5 -11 7 24 6 33 -1 52 3 60
14 6 9 16 14 22 12 6 -2 25 8 42 22 16 14 34 25 38 25 5 0 27 17 50 37 l41 38
27 -58 c36 -77 59 -90 168 -95 l90 -5 -17 27 c-9 14 -21 23 -27 20 -21 -13
-64 18 -82 59 -19 44 -12 73 17 71 25 -2 10 112 -21 159 -19 28 -28 35 -34 25
-7 -9 -8 -5 -4 12 3 14 6 30 6 35 0 6 14 -10 30 -35 l30 -45 0 46 c0 46 13 71
34 63 11 -4 14 -1 60 78 l27 47 -30 16 c-17 8 -31 22 -31 30 0 8 -4 15 -9 15
-15 0 -22 -30 -11 -50 14 -26 12 -34 -5 -20 -8 6 -19 9 -24 6 -5 -4 -11 8 -13
26 -2 25 -7 32 -20 30 -20 -3 -22 6 -9 27 5 7 13 11 18 8 13 -8 5 48 -19 121
-12 37 -25 62 -34 62 -8 0 -14 10 -14 25 0 25 -58 92 -98 114 -17 9 -18 7 -15
-13 11 -57 -67 -36 -94 25 l-17 39 -105 -1 c-58 0 -124 -6 -146 -13z m-242
-396 c37 -43 43 -71 21 -87 -24 -18 -28 -17 -62 12 -35 29 -52 83 -31 96 25
16 47 9 72 -21z m735 -37 c18 -30 30 -58 28 -61 -7 -6 -28 17 -45 50 -8 15
-19 24 -27 21 -14 -5 -20 27 -7 40 12 13 18 7 51 -50z m-11 -295 c10 -11 11
-18 3 -23 -6 -4 -12 -5 -14 -4 -1 2 -13 21 -25 41 -14 24 -27 35 -37 31 -17
-6 -18 10 -3 39 10 19 13 18 36 -23 14 -24 32 -51 40 -61z m-782 20 c15 -27
22 -48 17 -48 -6 0 -19 16 -31 35 -11 20 -27 38 -35 41 -8 3 -12 13 -9 25 7
26 19 15 58 -53z m149 -186 c23 -33 27 -45 18 -54 -9 -9 -12 -8 -12 5 0 9 -18
35 -39 57 -32 34 -35 41 -18 38 12 -2 35 -22 51 -46z m446 23 c0 -8 -4 -15
-10 -15 -5 0 -7 7 -4 15 4 8 8 15 10 15 2 0 4 -7 4 -15z m-474 -84 c18 -14 21
-21 11 -21 -32 0 -94 80 -80 103 3 6 14 -6 24 -26 10 -19 31 -45 45 -56z m678
28 c39 -66 40 -69 27 -69 -6 0 -20 18 -32 40 -13 22 -28 39 -35 38 -13 -3 -14
-1 -14 32 0 35 16 22 54 -41z"/>
<path d="M120 775 c0 -39 57 -101 76 -82 10 9 -5 43 -31 71 -27 29 -45 34 -45
11z"/>
<path d="M700 1162 c0 -16 41 -62 56 -62 17 0 18 21 2 42 -15 19 -58 34 -58
20z"/>
<path d="M530 1126 c0 -9 7 -12 21 -9 16 4 17 8 7 14 -19 13 -28 11 -28 -5z"/>
<path d="M1171 1108 c-5 -13 -16 -40 -24 -61 -9 -21 -13 -45 -10 -54 4 -10 2
-14 -4 -10 -6 4 -24 -23 -43 -65 -31 -71 -31 -72 -12 -87 11 -9 25 -27 32 -40
12 -24 13 -24 27 -6 12 17 11 21 -6 35 -15 11 -18 19 -11 30 9 13 12 13 25 -4
13 -17 16 -15 40 40 29 65 85 220 85 235 0 5 -20 9 -45 9 -38 0 -47 -4 -54
-22z m79 -8 c0 -5 -4 -10 -10 -10 -5 0 -10 5 -10 10 0 6 5 10 10 10 6 0 10 -4
10 -10z"/>
<path d="M1372 1113 c2 -9 14 -20 28 -23 44 -10 50 -39 50 -250 0 -215 -6
-243 -53 -248 -15 -2 -27 -9 -27 -18 0 -12 35 -14 219 -14 l218 0 7 46 c16
120 -3 163 -38 86 -10 -21 -28 -51 -40 -67 -20 -25 -30 -28 -97 -33 -113 -7
-109 -17 -109 252 0 239 0 237 53 250 15 3 27 13 27 21 0 12 -21 15 -121 15
-108 0 -120 -2 -117 -17z"/>
<path d="M1860 1116 c0 -9 12 -18 28 -22 53 -13 52 -10 52 -255 0 -215 -1
-229 -19 -239 -11 -5 -29 -10 -40 -10 -12 0 -21 -7 -21 -15 0 -13 21 -15 125
-15 104 0 125 2 125 15 0 10 -10 15 -29 15 -51 0 -61 20 -61 126 l0 94 63 0
c126 0 209 67 210 171 1 59 -22 95 -79 124 -32 16 -66 20 -196 23 -140 4 -158
3 -158 -12z m300 -54 c54 -54 46 -158 -15 -198 -14 -9 -48 -19 -76 -22 l-49
-5 0 127 0 126 56 0 c48 0 60 -4 84 -28z"/>
<path d="M2360 1116 c0 -8 15 -20 34 -26 19 -6 37 -18 40 -26 3 -9 6 -112 6
-229 0 -232 -3 -245 -56 -245 -15 0 -24 -6 -24 -15 0 -12 20 -15 120 -15 100
0 120 3 120 15 0 8 -8 15 -18 15 -10 0 -28 7 -40 16 -20 14 -22 23 -22 125 l0
109 135 0 135 0 0 -109 c0 -119 -9 -141 -56 -141 -15 0 -24 -6 -24 -15 0 -12
20 -15 120 -15 100 0 120 3 120 15 0 8 -8 15 -18 15 -10 0 -28 7 -40 16 -22
15 -22 19 -22 238 0 239 0 237 53 250 15 3 27 13 27 21 0 12 -21 15 -120 15
-97 0 -120 -3 -120 -14 0 -8 15 -20 34 -26 19 -6 37 -18 40 -26 3 -9 6 -56 6
-105 l0 -89 -135 0 -135 0 0 99 c0 105 3 113 53 125 16 4 27 12 24 19 -2 8
-40 13 -120 15 -97 2 -117 0 -117 -12z"/>
<path d="M3247 1123 c-3 -4 -46 -112 -95 -240 -50 -127 -95 -241 -101 -252 -6
-11 -27 -25 -46 -32 -19 -7 -35 -19 -35 -26 0 -10 26 -13 105 -13 83 0 105 3
105 14 0 8 -15 17 -36 20 -19 4 -37 13 -40 21 -3 8 4 44 16 80 l22 65 98 0 98
0 26 -71 c14 -38 26 -74 26 -79 0 -5 -16 -12 -35 -16 -20 -3 -35 -12 -35 -20
0 -11 24 -14 115 -14 96 0 115 3 115 15 0 8 -6 15 -14 15 -39 0 -62 43 -156
286 -90 233 -114 278 -133 247z m37 -227 c20 -50 36 -94 36 -98 0 -4 -36 -8
-80 -8 -44 0 -80 3 -80 7 0 21 75 202 81 196 4 -4 23 -48 43 -97z"/>
<path d="M357 1076 c-5 -13 31 -66 45 -66 16 0 15 32 -3 54 -23 29 -34 32 -42
12z"/>
<path d="M270 1043 c0 -25 48 -83 65 -77 16 6 11 26 -17 67 -21 30 -48 36 -48
10z"/>
<path d="M827 993 c-11 -19 32 -83 56 -83 23 0 15 30 -16 66 -21 25 -33 29
-40 17z"/>
<path d="M774 938 c3 -13 6 -31 6 -40 0 -10 7 -18 15 -18 19 0 19 13 0 50 -18
35 -30 39 -21 8z"/>
<path d="M145 940 c-8 -13 4 -32 16 -25 12 8 12 35 0 35 -6 0 -13 -4 -16 -10z"/>
<path d="M1045 820 c-10 -16 3 -44 30 -70 22 -20 25 -21 31 -6 4 10 -3 31 -17
51 -25 37 -34 42 -44 25z"/>
<path d="M210 799 c0 -15 39 -69 51 -69 15 0 10 47 -7 64 -18 18 -44 21 -44 5z"/>
<path d="M57 744 c-11 -12 -8 -59 5 -72 13 -13 48 -16 48 -4 0 16 -46 82 -53
76z"/>
<path d="M791 723 c13 -35 38 -63 56 -63 21 0 15 26 -13 59 -34 40 -58 42 -43
4z"/>
<path d="M150 533 c0 -22 48 -83 66 -83 19 0 18 30 -3 60 -29 42 -63 55 -63
23z"/>
<path d="M1237 453 c-13 -25 -13 -30 11 -65 28 -43 37 -46 52 -19 7 14 7 22
-1 26 -6 4 -8 17 -5 30 4 17 0 27 -19 39 -23 15 -25 15 -38 -11z"/>
<path d="M1196 382 c-4 -8 -1 -24 10 -40 23 -34 25 -50 13 -76 -10 -21 -10
-21 5 -1 8 11 20 25 26 32 5 7 10 18 10 25 -1 20 -28 51 -39 44 -5 -3 -11 2
-13 11 -3 14 -5 15 -12 5z"/>
<path d="M1160 335 c-11 -14 -9 -20 13 -43 l27 -27 0 25 c0 14 -7 33 -14 43
-12 16 -15 16 -26 2z"/>
<path d="M960 308 c0 -20 38 -78 55 -85 27 -10 28 4 3 49 -22 41 -58 63 -58
36z"/>
<path d="M1116 292 c-6 -11 41 -82 55 -82 25 0 20 34 -9 61 -33 31 -38 33 -46
21z"/>
<path d="M1069 263 c-20 -5 -15 -39 10 -72 16 -22 20 -22 45 -9 l27 14 -28 37
c-15 20 -30 36 -33 35 -3 0 -12 -2 -21 -5z"/>
</g>
</svg>
